<?xml version="1.0" standalone="no"?>
<svg xmlns:xlink="http://www.w3.org/1999/xlink" id="wave" style="transform:rotate(180deg); transition: 0.3s" viewBox="0 0 1440 320" version="1.1" xmlns="http://www.w3.org/2000/svg"><defs><linearGradient id="sw-gradient-0" x1="0" x2="0" y1="1" y2="0"><stop stop-color="rgba(5, 117, 230, 1)" offset="0%"/><stop stop-color="rgba(2, 27, 121, 1)" offset="100%"/></linearGradient></defs><path style="transform:translate(0, 0px); opacity:1" fill="url(#sw-gradient-0)" d="M0,64L34.3,53.3C68.6,43,137,21,206,48C274.3,75,343,149,411,192C480,235,549,245,617,213.3C685.7,181,754,107,823,85.3C891.4,64,960,96,1029,96C1097.1,96,1166,64,1234,90.7C1302.9,117,1371,203,1440,202.7C1508.6,203,1577,117,1646,74.7C1714.3,32,1783,32,1851,32C1920,32,1989,32,2057,64C2125.7,96,2194,160,2263,154.7C2331.4,149,2400,75,2469,85.3C2537.1,96,2606,192,2674,202.7C2742.9,213,2811,139,2880,122.7C2948.6,107,3017,149,3086,154.7C3154.3,160,3223,128,3291,112C3360,96,3429,96,3497,128C3565.7,160,3634,224,3703,224C3771.4,224,3840,160,3909,112C3977.1,64,4046,32,4114,16C4182.9,0,4251,0,4320,42.7C4388.6,85,4457,171,4526,202.7C4594.3,235,4663,213,4731,186.7C4800,160,4869,128,4903,112L4937.1,96L4937.1,320L4902.9,320C4868.6,320,4800,320,4731,320C4662.9,320,4594,320,4526,320C4457.1,320,4389,320,4320,320C4251.4,320,4183,320,4114,320C4045.7,320,3977,320,3909,320C3840,320,3771,320,3703,320C3634.3,320,3566,320,3497,320C3428.6,320,3360,320,3291,320C3222.9,320,3154,320,3086,320C3017.1,320,2949,320,2880,320C2811.4,320,2743,320,2674,320C2605.7,320,2537,320,2469,320C2400,320,2331,320,2263,320C2194.3,320,2126,320,2057,320C1988.6,320,1920,320,1851,320C1782.9,320,1714,320,1646,320C1577.1,320,1509,320,1440,320C1371.4,320,1303,320,1234,320C1165.7,320,1097,320,1029,320C960,320,891,320,823,320C754.3,320,686,320,617,320C548.6,320,480,320,411,320C342.9,320,274,320,206,320C137.1,320,69,320,34,320L0,320Z"/></svg>