<?xml version="1.0" standalone="no"?>
<svg xmlns:xlink="http://www.w3.org/1999/xlink" id="wave" style="transform:rotate(180deg); transition: 0.3s" viewBox="0 0 1440 370" version="1.1" xmlns="http://www.w3.org/2000/svg"><defs><linearGradient id="sw-gradient-0" x1="0" x2="0" y1="1" y2="0"><stop stop-color="rgba(0, 127, 242, 1)" offset="0%"/><stop stop-color="rgba(0, 22, 255, 1)" offset="100%"/></linearGradient></defs><path style="transform:translate(0, 0px); opacity:1" fill="url(#sw-gradient-0)" d="M0,37L34.3,49.3C68.6,62,137,86,206,129.5C274.3,173,343,234,411,240.5C480,247,549,197,617,154.2C685.7,111,754,74,823,86.3C891.4,99,960,160,1029,166.5C1097.1,173,1166,123,1234,141.8C1302.9,160,1371,247,1440,271.3C1508.6,296,1577,259,1646,209.7C1714.3,160,1783,99,1851,92.5C1920,86,1989,136,2057,178.8C2125.7,222,2194,259,2263,234.3C2331.4,210,2400,123,2469,104.8C2537.1,86,2606,136,2674,178.8C2742.9,222,2811,259,2880,228.2C2948.6,197,3017,99,3086,86.3C3154.3,74,3223,148,3291,172.7C3360,197,3429,173,3497,166.5C3565.7,160,3634,173,3703,172.7C3771.4,173,3840,160,3909,154.2C3977.1,148,4046,148,4114,148C4182.9,148,4251,148,4320,154.2C4388.6,160,4457,173,4526,197.3C4594.3,222,4663,259,4731,271.3C4800,284,4869,271,4903,265.2L4937.1,259L4937.1,370L4902.9,370C4868.6,370,4800,370,4731,370C4662.9,370,4594,370,4526,370C4457.1,370,4389,370,4320,370C4251.4,370,4183,370,4114,370C4045.7,370,3977,370,3909,370C3840,370,3771,370,3703,370C3634.3,370,3566,370,3497,370C3428.6,370,3360,370,3291,370C3222.9,370,3154,370,3086,370C3017.1,370,2949,370,2880,370C2811.4,370,2743,370,2674,370C2605.7,370,2537,370,2469,370C2400,370,2331,370,2263,370C2194.3,370,2126,370,2057,370C1988.6,370,1920,370,1851,370C1782.9,370,1714,370,1646,370C1577.1,370,1509,370,1440,370C1371.4,370,1303,370,1234,370C1165.7,370,1097,370,1029,370C960,370,891,370,823,370C754.3,370,686,370,617,370C548.6,370,480,370,411,370C342.9,370,274,370,206,370C137.1,370,69,370,34,370L0,370Z"/></svg>